<svg width="18" height="16" fill="none" xmlns="http://www.w3.org/2000/svg"><path fill-rule="evenodd" clip-rule="evenodd" d="M8.132.338a5.562 5.562 0 0 1 1.996.005 5.397 5.397 0 0 1 1.85.71 5.01 5.01 0 0 1 1.431 1.323c.38.527.648 1.12.782 1.749.07.327.102.66.098.992.918.013 1.793.39 2.438 1.049a3.594 3.594 0 0 1 1.023 2.516c0 .94-.366 1.846-1.023 2.515a3.482 3.482 0 0 1-2.487 1.05.75.75 0 1 1 0-1.5c.528 0 1.038-.214 1.416-.6.379-.386.594-.913.594-1.465 0-.553-.215-1.08-.594-1.466a1.982 1.982 0 0 0-1.416-.6h-.788a.75.75 0 0 1-.733-.91c.093-.42.094-.85.005-1.268a3.134 3.134 0 0 0-.53-1.183 3.507 3.507 0 0 0-1.004-.926 3.896 3.896 0 0 0-1.335-.511c-.48-.09-.976-.09-1.457-.004a3.9 3.9 0 0 0-1.34.504c-.814.497-1.361 1.257-1.547 2.1a.75.75 0 0 1-.763.589 2.939 2.939 0 0 0-1.863.567c-.532.392-.904.95-1.057 1.575a2.712 2.712 0 0 0 .21 1.862c.29.58.78 1.047 1.39 1.318a.75.75 0 0 1-.61 1.37 4.337 4.337 0 0 1-2.12-2.017 4.212 4.212 0 0 1-.327-2.89 4.284 4.284 0 0 1 1.624-2.426 4.43 4.43 0 0 1 2.217-.842 4.875 4.875 0 0 1 2.066-2.487 5.4 5.4 0 0 1 1.854-.7Zm.59 6.387a.75.75 0 0 1 .75.75v5.403l1.079-1.102a.75.75 0 0 1 1.071 1.05L9.257 15.24a.75.75 0 0 1-1.072 0L5.82 12.826a.75.75 0 1 1 1.071-1.05l1.08 1.102V7.475a.75.75 0 0 1 .75-.75Z" fill="#000"/></svg>