<svg width="18" height="18" viewBox="0 0 18 18" fill="none" xmlns="http://www.w3.org/2000/svg">
<path fill-rule="evenodd" clip-rule="evenodd" d="M5.78467 2.79918C7.70542 1.83856 10.0859 1.72707 12.1489 2.55226C12.6617 2.75737 13.2437 2.50796 13.4488 1.99517C13.6539 1.48239 13.4045 0.900418 12.8917 0.695304C9.34763 -0.722318 4.97062 0.0333273 2.3379 2.93292C1.06451 4.33483 0.265862 6.10275 0.0556544 7.98496C-0.154562 9.86726 0.234434 11.7679 1.16726 13.4162C2.10008 15.0646 3.52917 16.3766 5.25105 17.1655C6.97284 17.9544 8.89962 18.18 10.7571 17.8101C14.6237 17.0412 17.2799 13.6431 17.9806 10.1394C18.0889 9.59786 17.7377 9.07104 17.1962 8.96273C16.6546 8.85441 16.1278 9.20563 16.0195 9.74719C15.4403 12.6431 13.2709 15.271 10.3667 15.8486C8.92198 16.1363 7.42332 15.9609 6.0841 15.3473C4.74488 14.7337 3.63338 13.7132 2.90786 12.4312C2.18235 11.1492 1.8798 9.67093 2.0433 8.20695C2.2068 6.74296 2.82818 5.36769 3.81865 4.2773C4.37676 3.66259 5.04679 3.16822 5.78467 2.79918ZM17.7348 4.22183C18.1094 3.81601 18.0841 3.18335 17.6783 2.80875C17.2725 2.43415 16.6398 2.45945 16.2652 2.86527L9.29161 10.42L6.82775 7.95615C6.43723 7.56563 5.80406 7.56563 5.41354 7.95615C5.02302 8.34668 5.02302 8.97984 5.41354 9.37037L8.61336 12.5702C8.8058 12.7626 9.06836 12.8683 9.34045 12.8629C9.61255 12.8574 9.87067 12.7413 10.0553 12.5414L17.7348 4.22183Z" fill="black"></path>
</svg>
