<svg width="18" height="18" fill="none" xmlns="http://www.w3.org/2000/svg"><path fill-rule="evenodd" clip-rule="evenodd" d="M5.785 2.8c1.92-.961 4.3-1.073 6.364-.248a1 1 0 0 0 .743-1.857C9.348-.722 4.97.033 2.338 2.933a9 9 0 0 0 8.42 14.877c3.866-.769 6.522-4.167 7.223-7.67a1 1 0 0 0-1.962-.393c-.579 2.896-2.748 5.524-5.652 6.102A7 7 0 0 1 3.819 4.277 6.682 6.682 0 0 1 5.785 2.8Zm11.95 1.422a1 1 0 0 0-1.47-1.357L9.292 10.42 6.828 7.956A1 1 0 0 0 5.414 9.37l3.2 3.2a1 1 0 0 0 1.441-.029l7.68-8.32Z" fill="#000"/></svg>