<svg width="18" height="16" viewBox="0 0 18 16" fill="none" xmlns="http://www.w3.org/2000/svg">
<path fill-rule="evenodd" clip-rule="evenodd" d="M8.13245 0.337534C8.79174 0.219009 9.46961 0.220864 10.1282 0.343014C10.7867 0.465166 11.4155 0.705697 11.9783 1.05317C12.5411 1.40071 13.0282 1.84927 13.409 2.37592C13.7899 2.90277 14.0566 3.49693 14.1906 4.12502C14.2604 4.45232 14.2932 4.78468 14.2892 5.11671C15.2071 5.12965 16.0818 5.50736 16.7273 6.16591C17.3838 6.83562 17.75 7.74082 17.75 8.68161C17.75 9.6224 17.3838 10.5276 16.7273 11.1973C16.0703 11.8675 15.1761 12.2469 14.2404 12.2469C13.8261 12.2469 13.4904 11.9111 13.4904 11.4969C13.4904 11.0826 13.8261 10.7469 14.2404 10.7469C14.7685 10.7469 15.278 10.533 15.6561 10.1473C16.0347 9.76107 16.25 9.23412 16.25 8.68161C16.25 8.1291 16.0347 7.60215 15.6561 7.21594C15.278 6.83024 14.7685 6.61636 14.2404 6.61636H13.4519C13.2247 6.61636 13.0097 6.51335 12.8673 6.33627C12.725 6.15918 12.6706 5.9271 12.7194 5.70519C12.8115 5.28688 12.8128 4.85662 12.7235 4.43788C12.6342 4.019 12.4552 3.61681 12.1934 3.25483C11.9316 2.89266 11.5916 2.57731 11.1902 2.32948C10.7887 2.0816 10.335 1.90696 9.8546 1.81786C9.37418 1.72875 8.87891 1.72738 8.39786 1.81387C7.91683 1.90034 7.46189 2.07251 7.0587 2.31826C6.24426 2.81467 5.6968 3.57531 5.5112 4.41882C5.43306 4.77395 5.11142 5.02187 4.7481 5.00702C4.07646 4.97958 3.41796 5.18104 2.88544 5.57371C2.35329 5.96609 1.98113 6.52389 1.82791 7.14912C1.67476 7.77406 1.74869 8.43183 2.03851 9.01101C2.32854 9.5906 2.81824 10.0579 3.42767 10.3289C3.80615 10.4972 3.97654 10.9405 3.80823 11.319C3.63993 11.6975 3.19668 11.8678 2.8182 11.6995C1.89655 11.2897 1.14533 10.578 0.69709 9.68226C0.248635 8.78609 0.132848 7.76396 0.371017 6.79209C0.609117 5.82049 1.18498 4.96387 1.99523 4.36642C2.64462 3.88759 3.41288 3.59839 4.21227 3.52384C4.58312 2.50029 5.31292 1.62567 6.27801 1.03743C6.84291 0.693113 7.47315 0.456063 8.13245 0.337534ZM8.72107 6.72507C9.13528 6.72507 9.47107 7.06086 9.47107 7.47507V12.8778L10.5509 11.7762C10.8408 11.4804 11.3157 11.4757 11.6115 11.7656C11.9073 12.0556 11.912 12.5304 11.6221 12.8262L9.25666 15.2393C9.11561 15.3832 8.92258 15.4643 8.72107 15.4643C8.51956 15.4643 8.32654 15.3832 8.18548 15.2393L5.82007 12.8262C5.53011 12.5304 5.53485 12.0556 5.83065 11.7656C6.12645 11.4757 6.6013 11.4804 6.89125 11.7762L7.97107 12.8778V7.47507C7.97107 7.06086 8.30686 6.72507 8.72107 6.72507Z" fill="black"/>
</svg>
